<?xml version="1.0" standalone="no"?>
<!DOCTYPE svg PUBLIC "-//W3C//DTD SVG 20010904//EN"
 "http://www.w3.org/TR/2001/REC-SVG-20010904/DTD/svg10.dtd">
<svg version="1.0" xmlns="http://www.w3.org/2000/svg"
 width="272.000000pt" height="272.000000pt" viewBox="0 0 272.000000 272.000000"
 preserveAspectRatio="xMidYMid meet">
<metadata>
Created by potrace 1.11, written by Peter Selinger 2001-2013
</metadata>
<g transform="translate(0.000000,272.000000) scale(0.100000,-0.100000)"
fill="#000000" stroke="none">
<path d="M575 2665 c-48 -48 -176 -125 -209 -125 -19 0 -17 18 -21 -250 -13
-964 -13 -1309 0 -1395 15 -104 44 -226 56 -239 5 -6 9 -16 9 -24 0 -24 80
-174 123 -232 61 -81 151 -165 231 -215 65 -40 202 -102 247 -110 11 -2 22 -6
27 -8 4 -3 23 -8 42 -11 19 -3 46 -8 60 -11 173 -41 470 -19 656 48 205 74
378 219 472 397 23 41 52 109 66 150 53 161 54 180 55 1052 l1 806 -37 13
c-53 17 -129 69 -187 127 l-48 49 -57 -28 c-178 -86 -371 -109 -503 -59 -58
22 -138 72 -156 97 -12 17 -19 15 -110 -29 -53 -25 -129 -53 -168 -60 -163
-33 -338 1 -474 91 -25 17 -26 16 -75 -34z"/>
</g>
</svg>
